<svg version="1.1" xmlns="http://www.w3.org/2000/svg" xmlns:xlink="http://www.w3.org/1999/xlink" width="134.45361328125" height="77"><defs/><g><text fill="#eeeeee" stroke="none" font-family="Arial" font-size="24px" font-style="normal" font-weight="normal" text-decoration="none" x="0" y="0">UNREGISTERED</text><text fill="#eeeeee" stroke="none" font-family="Arial" font-size="24px" font-style="normal" font-weight="normal" text-decoration="none" x="0" y="30">UNREGISTERED</text><text fill="#eeeeee" stroke="none" font-family="Arial" font-size="24px" font-style="normal" font-weight="normal" text-decoration="none" x="0" y="60">UNREGISTERED</text><g transform="translate(-166,-190) scale(1,1)"><rect fill="#C0C0C0" stroke="none" x="183" y="207" width="114.45361328125" height="57" opacity="0.2"/></g><g transform="translate(-166,-190) scale(1,1)"><rect fill="#ffffff" stroke="none" x="176" y="200" width="114.45361328125" height="57"/></g><g transform="translate(-166,-190) scale(1,1)"><path fill="none" stroke="#000000" d="M 176 200 L 290.45361328125 200 L 290.45361328125 257 L 176 257 L 176 200 Z Z" stroke-miterlimit="10"/></g><g transform="translate(-166,-190) scale(1,1)"><path fill="none" stroke="#000000" d="M 176 238 L 290.45361328125 238" stroke-miterlimit="10"/></g><g transform="translate(-166,-190) scale(1,1)"><path fill="none" stroke="#000000" d="M 176 248 L 290.45361328125 248" stroke-miterlimit="10"/></g><g transform="translate(-166,-190) scale(1,1)"><g><path fill="none" stroke="none"/><text fill="#000000" stroke="none" font-family="Arial" font-size="13px" font-style="normal" font-weight="normal" text-decoration="none" x="193.8427734375" y="217.5">«information»</text></g></g><g transform="translate(-166,-190) scale(1,1)"><g><path fill="none" stroke="none"/><text fill="#000000" stroke="none" font-family="Arial" font-size="13px" font-style="normal" font-weight="bold" text-decoration="none" x="184.45458984375" y="232.5">InformationItem1</text></g></g></g></svg>